<svg xmlns="http://www.w3.org/2000/svg" viewBox="0 0 576.09 163.86"><defs><style>.cls-1{fill:none;stroke-width:0.18px;}.cls-1,.cls-2,.cls-3{stroke:red;}.cls-1,.cls-2{stroke-linecap:round;stroke-linejoin:round;}.cls-2,.cls-3{fill:red;}.cls-2{stroke-width:0.14px;}.cls-3{stroke-miterlimit:1.5;stroke-width:0.11px;}</style></defs><title>Prancheta11 (3)</title><g id="Camada_2" data-name="Camada 2"><g id="Camada_1-2" data-name="Camada 1"><g id="Prancheta11"><path class="cls-1" d="M76.05,52.46,112.27.09"/><path class="cls-1" d="M165.64,49.75,157.93.09"/><path class="cls-1" d="M112.27.09h45.66"/><path class="cls-1" d="M76.05,52.46,112.27.09"/><path class="cls-1" d="M165.64,49.75,157.93.09"/><path class="cls-1" d="M112.27.09h45.66"/><path class="cls-2" d="M157.93.09l25,162.56H138.66l-4.1-27.17h-60L57,162.65.07,162.58,112.27.09ZM131.85,115.27l-2.29-14.86H68.67L46.32,132.69H71.91l11.63-17.42Zm-2.79-18.22-8.94-62.82h-5.85L71.06,97.05Z"/><path class="cls-2" d="M308.67,70.35a134.24,134.24,0,0,0-20.17-7.22l-13.82-3.47A57.47,57.47,0,0,1,264.21,56c-5.23-1.93-6.81-5.64-4.29-11.34A25.09,25.09,0,0,1,264.21,38q9.65-9.08,21-7.87a64.18,64.18,0,0,1,17.48,4.57A78.14,78.14,0,0,1,322,46.56l22.86-24.78a58.93,58.93,0,0,0-14.5-11.46,83,83,0,0,0-28.59-9.08,112.33,112.33,0,0,0-26.3-.58,81.85,81.85,0,0,0-18.7,3.91,87.15,87.15,0,0,0-19.36,9.37A70,70,0,0,0,223.3,26.43a67.07,67.07,0,0,0-10.79,18.21,79.71,79.71,0,0,0-3.73,14.43c-1.08,9.84,1.34,17.72,6.69,23.95a43.08,43.08,0,0,0,15.3,10.49,112.32,112.32,0,0,0,14.16,4.81q9.52,2.75,18.18,5l8.53,3c7.48,2.84,7.94,7.55,3,13.69a15.73,15.73,0,0,1-8.76,3.87,99.55,99.55,0,0,1-13.71.75,101.67,101.67,0,0,1-19.8-2.72,59.07,59.07,0,0,1-21.15-14.19L198.72,119.6c14.07,14.79,31.4,22.49,52.26,22.57-20.86-.08-38.19-7.78-52.26-22.57L181.39,136h0c11.35,13.15,26.16,21.1,44.08,24.35a113.2,113.2,0,0,0,44.84,0,74.88,74.88,0,0,0,26.86-11c9.11-5.84,16.76-12.92,22.14-21.93a83.6,83.6,0,0,0,7.4-18.13c3.17-10.56,1.68-20.22-4.73-28.93A45.13,45.13,0,0,0,308.67,70.35Z"/><path class="cls-2" d="M469.91,7.22Q458.09,1.8,441.85,1.41L361.62,1,317.73,163.79h41.61l19-70.52h17.16l29.92,70.05,46.42-.3L441.69,92.9a55.77,55.77,0,0,0,19.87-11,61.49,61.49,0,0,0,17.13-20.46,79.68,79.68,0,0,0,7-20.77C487.75,25,482.78,13.69,469.91,7.22Zm-20.1,44.87c-2.74,7.78-8.1,13.48-15.55,17.53-3.63,1.73-9.24,2.47-16.44,2.44l24.45,57.82h-9.52L406.11,68.11H385l5-18.81L395.33,29H428.6a42,42,0,0,1,13,1.69C450.78,34.4,453,41.78,449.81,52.09Z"/><path class="cls-3" d="M529,48.68a4.37,4.37,0,0,0-.08-6.51l-5.74-4a7.55,7.55,0,0,0-3.93-1.28A5.3,5.3,0,0,0,514.45,40L486.9,89c-.48,1,.21,1.35,1.1.5l41-40.79Z"/><path class="cls-3" d="M543.9,27.68a3.58,3.58,0,0,1,1.17,6L540.64,38a7.35,7.35,0,0,1-4.48,1.72,5.65,5.65,0,0,1-.58,0,6.77,6.77,0,0,1-4.23-1.14L479.17,3.77c-.66-.48-.68-1,.49-.62L543.9,27.68Z"/><path class="cls-3" d="M574.45,39.36a2.22,2.22,0,0,1,.34,4.12L489.84,93.76c-1.38.69-1.6,0-.48-.94l59-56.6a10.16,10.16,0,0,1,11-2.83l15.05,6Z"/></g></g></g></svg>